<svg width="708" height="708" viewBox="0 0 708 708" fill="none" xmlns="http://www.w3.org/2000/svg">
<rect opacity="0.5" x="2.56785" y="354" width="497" height="497" transform="rotate(-45 2.56785 354)" stroke="url(#paint0_linear_8_9)" stroke-width="3"/>
<rect opacity="0.5" x="77.0891" y="304.799" width="397" height="397" transform="rotate(-35 77.0891 304.799)" stroke="url(#paint1_linear_8_9)" stroke-width="3"/>
<rect opacity="0.5" x="156.993" y="282.511" width="297" height="297" transform="rotate(-25 156.993 282.511)" stroke="url(#paint2_linear_8_9)" stroke-width="3"/>
<rect opacity="0.5" x="233.837" y="284.824" width="197" height="197" transform="rotate(-15 233.837 284.824)" stroke="url(#paint3_linear_8_9)" stroke-width="3"/>
<rect opacity="0.5" x="301.625" y="310.079" width="97" height="97" transform="rotate(-5 301.625 310.079)" stroke="url(#paint4_linear_8_9)" stroke-width="3"/>
<rect opacity="0.5" x="334.899" y="326.738" width="47" height="47" transform="rotate(10 334.899 326.738)" stroke="url(#paint5_linear_8_9)" stroke-width="3"/>
<defs>
<linearGradient id="paint0_linear_8_9" x1="11.798" y1="365.352" x2="481.671" y2="835.224" gradientUnits="userSpaceOnUse">
<stop stop-color="#DC5F00"/>
<stop offset="1" stop-color="#CF0A0A"/>
</linearGradient>
<linearGradient id="paint1_linear_8_9" x1="82.2378" y1="695.958" x2="474.459" y2="304.052" gradientUnits="userSpaceOnUse">
<stop stop-color="#DC5F00"/>
<stop offset="1" stop-color="#CF0A0A"/>
</linearGradient>
<linearGradient id="paint2_linear_8_9" x1="449.233" y1="574.802" x2="160.62" y2="286.298" gradientUnits="userSpaceOnUse">
<stop stop-color="#DC5F00"/>
<stop offset="1" stop-color="#CF0A0A"/>
</linearGradient>
<linearGradient id="paint3_linear_8_9" x1="428.466" y1="288.511" x2="237.985" y2="479.726" gradientUnits="userSpaceOnUse">
<stop stop-color="#DC5F00"/>
<stop offset="1" stop-color="#CF0A0A"/>
</linearGradient>
<linearGradient id="paint4_linear_8_9" x1="306.338" y1="316.582" x2="388.725" y2="396.065" gradientUnits="userSpaceOnUse">
<stop stop-color="#DC5F00"/>
<stop offset="1" stop-color="#CF0A0A"/>
</linearGradient>
<linearGradient id="paint5_linear_8_9" x1="337.204" y1="369.058" x2="379.613" y2="333.148" gradientUnits="userSpaceOnUse">
<stop stop-color="#DC5F00"/>
<stop offset="1" stop-color="#CF0A0A"/>
</linearGradient>
</defs>
</svg>
