<svg id="visual" viewBox="0 0 900 600" width="900" height="600" xmlns="http://www.w3.org/2000/svg" xmlns:xlink="http://www.w3.org/1999/xlink" version="1.1"><path d="M0 434L21.5 430.7C43 427.3 86 420.7 128.8 413.3C171.7 406 214.3 398 257.2 395.7C300 393.3 343 396.7 385.8 397.3C428.7 398 471.3 396 514.2 398.7C557 401.3 600 408.7 642.8 417.7C685.7 426.7 728.3 437.3 771.2 442.7C814 448 857 448 878.5 448L900 448L900 601L878.5 601C857 601 814 601 771.2 601C728.3 601 685.7 601 642.8 601C600 601 557 601 514.2 601C471.3 601 428.7 601 385.8 601C343 601 300 601 257.2 601C214.3 601 171.7 601 128.8 601C86 601 43 601 21.5 601L0 601Z" fill="#6b6b6b"></path><path d="M0 417L21.5 426C43 435 86 453 128.8 461.7C171.7 470.3 214.3 469.7 257.2 464C300 458.3 343 447.7 385.8 448.7C428.7 449.7 471.3 462.3 514.2 469.3C557 476.3 600 477.7 642.8 469.8C685.7 462 728.3 445 771.2 431C814 417 857 406 878.5 400.5L900 395L900 601L878.5 601C857 601 814 601 771.2 601C728.3 601 685.7 601 642.8 601C600 601 557 601 514.2 601C471.3 601 428.7 601 385.8 601C343 601 300 601 257.2 601C214.3 601 171.7 601 128.8 601C86 601 43 601 21.5 601L0 601Z" fill="#525252"></path><path d="M0 438L21.5 445C43 452 86 466 128.8 471C171.7 476 214.3 472 257.2 474.3C300 476.7 343 485.3 385.8 488.8C428.7 492.3 471.3 490.7 514.2 483.8C557 477 600 465 642.8 460C685.7 455 728.3 457 771.2 465.8C814 474.7 857 490.3 878.5 498.2L900 506L900 601L878.5 601C857 601 814 601 771.2 601C728.3 601 685.7 601 642.8 601C600 601 557 601 514.2 601C471.3 601 428.7 601 385.8 601C343 601 300 601 257.2 601C214.3 601 171.7 601 128.8 601C86 601 43 601 21.5 601L0 601Z" fill="#3a3a3a"></path><path d="M0 493L21.5 497C43 501 86 509 128.8 511.7C171.7 514.3 214.3 511.7 257.2 507.8C300 504 343 499 385.8 495.7C428.7 492.3 471.3 490.7 514.2 488.3C557 486 600 483 642.8 487.7C685.7 492.3 728.3 504.7 771.2 513.2C814 521.7 857 526.3 878.5 528.7L900 531L900 601L878.5 601C857 601 814 601 771.2 601C728.3 601 685.7 601 642.8 601C600 601 557 601 514.2 601C471.3 601 428.7 601 385.8 601C343 601 300 601 257.2 601C214.3 601 171.7 601 128.8 601C86 601 43 601 21.5 601L0 601Z" fill="#242424"></path><path d="M0 565L21.5 559.5C43 554 86 543 128.8 536.5C171.7 530 214.3 528 257.2 528.7C300 529.3 343 532.7 385.8 540.2C428.7 547.7 471.3 559.3 514.2 561.7C557 564 600 557 642.8 554C685.7 551 728.3 552 771.2 548.8C814 545.7 857 538.3 878.5 534.7L900 531L900 601L878.5 601C857 601 814 601 771.2 601C728.3 601 685.7 601 642.8 601C600 601 557 601 514.2 601C471.3 601 428.7 601 385.8 601C343 601 300 601 257.2 601C214.3 601 171.7 601 128.8 601C86 601 43 601 21.5 601L0 601Z" fill="#0e0e0e"></path></svg>