<svg width="1382" height="921" viewBox="0 0 1382 921" fill="none" xmlns="http://www.w3.org/2000/svg">
<g clip-path="url(#clip0_12_2)">
<path d="M0 666.19L33.0144 661.125C66.0289 655.906 132.058 645.774 197.78 634.415C263.655 623.21 329.07 610.93 394.945 607.4C460.667 603.716 526.696 608.934 592.417 609.855C658.293 610.93 723.707 607.86 789.583 612.005C855.304 615.996 921.333 627.355 987.055 641.17C1052.93 654.985 1118.35 671.256 1184.22 679.545C1249.94 687.68 1315.97 687.68 1348.99 687.68H1382V922.535H1348.99C1315.97 922.535 1249.94 922.535 1184.22 922.535C1118.35 922.535 1052.93 922.535 987.055 922.535C921.333 922.535 855.304 922.535 789.583 922.535C723.707 922.535 658.293 922.535 592.417 922.535C526.696 922.535 460.667 922.535 394.945 922.535C329.07 922.535 263.655 922.535 197.78 922.535C132.058 922.535 66.0289 922.535 33.0144 922.535H0V666.19Z" fill="#6B6B6B"/>
<path d="M0 640.095L33.0144 653.91C66.0289 667.725 132.058 695.355 197.78 708.71C263.655 721.911 329.07 720.99 394.945 712.24C460.667 703.491 526.696 687.22 592.417 688.755C658.293 690.29 723.707 709.63 789.583 720.375C855.304 731.12 921.333 733.269 987.055 721.143C1052.93 709.17 1118.35 683.075 1184.22 661.585C1249.94 640.095 1315.97 623.21 1348.99 614.768L1382 606.325V922.535H1348.99C1315.97 922.535 1249.94 922.535 1184.22 922.535C1118.35 922.535 1052.93 922.535 987.055 922.535C921.333 922.535 855.304 922.535 789.583 922.535C723.707 922.535 658.293 922.535 592.417 922.535C526.696 922.535 460.667 922.535 394.945 922.535C329.07 922.535 263.655 922.535 197.78 922.535C132.058 922.535 66.0289 922.535 33.0144 922.535H0V640.095Z" fill="#525252"/>
<path d="M0 672.33L33.0144 683.075C66.0289 693.82 132.058 715.31 197.78 722.985C263.655 730.66 329.07 724.52 394.945 728.05C460.667 731.734 526.696 744.935 592.417 750.308C658.293 755.68 723.707 753.224 789.583 742.633C855.304 732.195 921.333 713.775 987.055 706.1C1052.93 698.425 1118.35 701.495 1184.22 715.003C1249.94 728.664 1315.97 752.611 1348.99 764.737L1382 776.71V922.535H1348.99C1315.97 922.535 1249.94 922.535 1184.22 922.535C1118.35 922.535 1052.93 922.535 987.055 922.535C921.333 922.535 855.304 922.535 789.583 922.535C723.707 922.535 658.293 922.535 592.417 922.535C526.696 922.535 460.667 922.535 394.945 922.535C329.07 922.535 263.655 922.535 197.78 922.535C132.058 922.535 66.0289 922.535 33.0144 922.535H0V672.33Z" fill="#3A3A3A"/>
<path d="M0 756.755L33.0144 762.895C66.0289 769.035 132.058 781.315 197.78 785.46C263.655 789.451 329.07 785.459 394.945 779.473C460.667 773.64 526.696 765.965 592.417 760.9C658.293 755.681 723.707 753.224 789.583 749.54C855.304 746.01 921.333 741.405 987.055 748.62C1052.93 755.681 1118.35 774.715 1184.22 787.762C1249.94 800.81 1315.97 807.871 1348.99 811.555L1382 815.085V922.535H1348.99C1315.97 922.535 1249.94 922.535 1184.22 922.535C1118.35 922.535 1052.93 922.535 987.055 922.535C921.333 922.535 855.304 922.535 789.583 922.535C723.707 922.535 658.293 922.535 592.417 922.535C526.696 922.535 460.667 922.535 394.945 922.535C329.07 922.535 263.655 922.535 197.78 922.535C132.058 922.535 66.0289 922.535 33.0144 922.535H0V756.755Z" fill="#242424"/>
<path d="M0 867.275L33.0144 858.832C66.0289 850.39 132.058 833.505 197.78 823.527C263.655 813.55 329.07 810.48 394.945 811.554C460.667 812.475 526.696 817.694 592.417 829.207C658.293 840.719 723.707 858.525 789.583 862.209C855.304 865.74 921.333 854.995 987.055 850.39C1052.93 845.785 1118.35 847.32 1184.22 842.408C1249.94 837.649 1315.97 826.29 1348.99 820.764L1382 815.085V922.535H1348.99C1315.97 922.535 1249.94 922.535 1184.22 922.535C1118.35 922.535 1052.93 922.535 987.055 922.535C921.333 922.535 855.304 922.535 789.583 922.535C723.707 922.535 658.293 922.535 592.417 922.535C526.696 922.535 460.667 922.535 394.945 922.535C329.07 922.535 263.655 922.535 197.78 922.535C132.058 922.535 66.0289 922.535 33.0144 922.535H0V867.275Z" fill="#0E0E0E"/>
</g>
<defs>
<clipPath id="clip0_12_2">
<rect width="1382" height="921" fill="white"/>
</clipPath>
</defs>
</svg>
